<?xml version="1.0" standalone="no"?>
<!DOCTYPE svg PUBLIC "-//W3C//DTD SVG 20010904//EN"
 "http://www.w3.org/TR/2001/REC-SVG-20010904/DTD/svg10.dtd">
<svg version="1.0" xmlns="http://www.w3.org/2000/svg"
 width="300.000000pt" height="300.000000pt" viewBox="0 0 300.000000 300.000000"
 preserveAspectRatio="xMidYMid meet">
<metadata>
Created by potrace 1.10, written by Peter Selinger 2001-2011
</metadata>
<g transform="translate(0.000000,300.000000) scale(0.100000,-0.100000)"
fill="#000000" stroke="none">
<path d="M2245 2538 c-1 -104 -5 -154 -16 -182 -14 -37 -14 -44 3 -89 10 -27
23 -70 29 -97 l10 -47 77 77 c42 42 88 83 101 92 24 14 25 16 12 72 -19 86
-78 193 -141 258 -31 32 -60 58 -65 58 -6 0 -10 -59 -10 -142z"/>
<path d="M980 2254 l-170 -167 0 -410 0 -409 31 6 c17 3 40 6 50 6 18 0 19 16
19 410 0 320 3 410 13 412 6 1 71 2 144 3 172 0 167 -5 172 158 3 68 7 107 10
88 l6 -34 333 2 332 1 0 -195 c0 -107 3 -195 8 -195 4 1 28 33 55 71 l47 71 0
162 c0 113 -4 166 -12 174 -9 9 -120 12 -440 12 l-428 0 -170 -166z"/>
<path d="M2135 2143 c-58 -114 -165 -280 -241 -374 l-53 -65 16 -133 c16 -136
13 -161 -21 -148 -9 4 -17 27 -21 64 -4 32 -10 76 -14 98 l-7 40 -61 -120
c-33 -66 -72 -149 -86 -185 -23 -60 -25 -71 -17 -143 9 -81 6 -107 -14 -107
-24 0 -36 25 -36 75 -1 47 -2 49 -16 30 -22 -30 -64 -171 -64 -218 0 -50 13
-100 36 -135 l16 -25 52 99 c61 116 125 221 266 434 109 166 280 497 320 619
19 59 22 86 18 163 -6 143 -15 147 -73 31z"/>
<path d="M2433 2211 c-79 -57 -133 -145 -216 -347 -86 -210 -175 -373 -344
-632 -52 -79 -112 -173 -134 -208 -43 -71 -129 -239 -129 -253 0 -15 88 -34
132 -27 24 4 68 19 98 33 l55 27 -50 6 c-42 4 -50 8 -50 25 0 18 8 21 74 25
67 5 75 8 100 37 24 29 111 182 111 196 0 3 -33 -10 -73 -29 -41 -19 -91 -37
-111 -41 -35 -6 -38 -4 -34 18 2 19 16 28 76 50 112 41 184 88 207 134 11 22
55 100 98 174 43 73 76 135 74 137 -2 3 -32 -7 -65 -22 -63 -27 -92 -27 -92 1
0 9 36 32 94 59 82 38 97 49 114 82 29 59 77 202 70 209 -3 4 -32 -10 -63 -30
-60 -38 -90 -42 -90 -11 0 13 25 34 80 67 44 27 85 56 92 66 16 24 36 232 26
261 l-9 23 -41 -30z"/>
<path d="M1674 2198 c-7 -24 -18 -35 -42 -42 -40 -11 -40 -19 0 -31 23 -8 35
-19 43 -45 l12 -35 16 38 c12 28 23 39 47 43 38 8 38 17 -1 31 -19 8 -34 23
-42 42 -15 39 -22 39 -33 -1z"/>
<path d="M1480 2195 c0 -8 -14 -24 -32 -35 l-32 -19 26 -10 c15 -5 29 -19 33
-30 8 -28 23 -27 27 2 2 14 11 23 26 25 29 4 28 16 -3 30 -14 6 -25 18 -25 26
0 8 -4 18 -10 21 -5 3 -10 -1 -10 -10z"/>
<path d="M1040 1995 c-6 -8 -10 -22 -8 -32 3 -17 26 -18 388 -18 372 0 385 1
388 19 9 44 -11 46 -394 46 -304 0 -363 -2 -374 -15z"/>
<path d="M1033 1834 c-3 -9 -2 -24 4 -33 9 -14 52 -16 375 -19 305 -2 367 0
383 12 16 12 18 18 9 33 -10 17 -37 18 -388 21 -342 2 -377 1 -383 -14z"/>
<path d="M1240 1700 c0 -32 23 -42 34 -15 8 21 -3 45 -20 45 -9 0 -14 -11 -14
-30z"/>
<path d="M1039 1654 c-25 -30 1 -49 72 -52 86 -4 109 3 109 32 0 30 -16 36
-100 36 -49 0 -71 -4 -81 -16z"/>
<path d="M1299 1654 c-9 -11 -10 -20 -2 -32 9 -15 36 -17 211 -20 l201 -2 16
29 c8 17 15 32 15 36 0 3 -96 5 -214 5 -183 0 -215 -2 -227 -16z"/>
<path d="M1240 1580 c0 -20 5 -30 15 -30 10 0 15 10 15 30 0 20 -5 30 -15 30
-10 0 -15 -10 -15 -30z"/>
<path d="M1034 1465 c-4 -8 -4 -22 0 -30 5 -13 47 -15 295 -15 277 0 291 1
301 19 5 11 10 24 10 30 0 8 -94 11 -300 11 -258 0 -301 -2 -306 -15z"/>
<path d="M1216 1330 c-4 -24 -15 -35 -43 -47 l-38 -16 35 -12 c26 -8 37 -20
45 -43 12 -40 18 -40 32 -1 8 19 23 34 42 42 39 14 39 24 1 32 -22 5 -32 15
-42 41 -15 42 -24 43 -32 4z"/>
<path d="M1350 1265 c-24 -29 5 -45 86 -45 69 0 74 1 94 30 l21 30 -94 0 c-72
0 -98 -4 -107 -15z"/>
<path d="M837 1200 c-55 -14 -93 -36 -144 -83 -63 -58 -95 -126 -101 -213 -9
-142 51 -252 172 -314 63 -32 76 -35 155 -35 66 1 97 6 133 22 200 91 256 358
110 524 -50 57 -140 99 -219 104 -38 2 -85 0 -106 -5z m169 -115 c73 -43 101
-131 68 -214 -15 -37 -14 -43 7 -110 33 -102 34 -101 -166 -101 -201 0 -199
-1 -163 103 25 71 25 72 7 112 -23 49 -23 75 -4 123 44 104 155 143 251 87z"/>
<path d="M864 1060 c-11 -4 -33 -22 -47 -40 -32 -37 -37 -106 -11 -150 16 -26
15 -31 -5 -91 -11 -34 -21 -67 -21 -71 0 -9 263 -11 272 -3 3 3 -6 37 -20 75
-24 67 -24 71 -8 89 10 11 20 37 22 58 12 93 -92 170 -182 133z m116 -68 c11
-13 20 -33 20 -43 0 -30 -22 -68 -42 -75 -11 -3 -17 -12 -14 -19 17 -46 28
-96 22 -103 -4 -4 -18 6 -31 22 -22 27 -23 28 -29 8 -6 -18 -34 -38 -42 -29
-2 2 4 27 13 55 17 52 17 52 -6 68 -72 51 -22 163 65 146 13 -2 33 -16 44 -30z"/>
<path d="M887 973 c-12 -12 -7 -50 8 -63 35 -29 85 26 53 58 -13 13 -50 16
-61 5z"/>
<path d="M1274 1053 c8 -16 19 -47 25 -70 l12 -43 64 0 65 0 0 38 c0 20 4 52
9 70 l10 32 -100 0 -100 0 15 -27z"/>
<path d="M1461 776 c-14 -16 -5 -42 16 -50 14 -6 13 -10 -7 -31 -13 -14 -30
-25 -38 -25 -12 0 -14 -13 -8 -82 4 -45 8 -84 10 -86 2 -2 33 15 69 37 58 37
65 45 71 82 6 35 9 39 27 34 22 -7 49 10 49 30 0 10 -157 105 -174 105 -2 0
-9 -6 -15 -14z m82 -111 c9 -21 -25 -58 -46 -50 -20 8 -22 36 -5 53 16 16 45
15 51 -3z"/>
<path d="M1055 390 c-147 -16 -200 -47 -117 -69 115 -31 762 -44 1008 -20 193
18 236 52 101 79 -75 16 -869 23 -992 10z"/>
</g>
</svg>
