<?xml version="1.0" standalone="no"?>
<!DOCTYPE svg PUBLIC "-//W3C//DTD SVG 20010904//EN"
 "http://www.w3.org/TR/2001/REC-SVG-20010904/DTD/svg10.dtd">
<svg version="1.0" xmlns="http://www.w3.org/2000/svg"
 width="300.000000pt" height="300.000000pt" viewBox="0 0 300.000000 300.000000"
 preserveAspectRatio="xMidYMid meet">
<metadata>
Created by potrace 1.10, written by Peter Selinger 2001-2011
</metadata>
<g transform="translate(0.000000,300.000000) scale(0.100000,-0.100000)"
fill="#000000" stroke="none">
<path d="M930 2622 l-555 -247 -3 -330 c-3 -354 8 -605 34 -725 97 -466 408
-886 804 -1085 102 -51 251 -105 290 -105 39 0 188 54 285 102 401 202 711
619 809 1088 26 120 37 371 34 725 l-3 330 -555 247 c-305 136 -562 247 -570
247 -8 0 -265 -111 -570 -247z m728 -536 c72 -37 128 -90 160 -150 23 -45 27
-66 32 -180 l5 -130 29 -7 c16 -5 42 -21 59 -36 54 -51 57 -70 57 -341 0 -242
-1 -250 -23 -283 -12 -18 -38 -44 -56 -56 -34 -23 -35 -23 -427 -23 l-393 0
-37 32 c-61 54 -64 69 -64 343 0 224 2 249 19 284 21 40 57 69 100 80 26 7 26
8 31 137 5 114 9 135 32 180 30 57 88 113 150 145 68 35 87 39 183 36 75 -3
99 -8 143 -31z"/>
<path d="M1395 1947 c-26 -14 -48 -37 -63 -67 -20 -40 -22 -57 -20 -150 l3
-105 185 0 185 0 3 105 c2 93 0 110 -20 150 -32 63 -83 90 -168 90 -49 0 -75
-6 -105 -23z"/>
</g>
</svg>
