<?xml version="1.0" standalone="no"?>
<!DOCTYPE svg PUBLIC "-//W3C//DTD SVG 20010904//EN"
 "http://www.w3.org/TR/2001/REC-SVG-20010904/DTD/svg10.dtd">
<svg version="1.0" xmlns="http://www.w3.org/2000/svg"
 width="300.000000pt" height="300.000000pt" viewBox="0 0 300.000000 300.000000"
 preserveAspectRatio="xMidYMid meet">
<metadata>
Created by potrace 1.10, written by Peter Selinger 2001-2011
</metadata>
<g transform="translate(0.000000,300.000000) scale(0.100000,-0.100000)"
fill="#000000" stroke="none">
<path d="M834 2371 c-61 -28 -88 -72 -92 -153 -4 -68 -4 -68 22 -68 24 0 26 3
26 45 0 52 19 96 52 119 43 31 48 23 48 -82 0 -91 1 -98 22 -107 48 -21 46
-110 -2 -122 -32 -8 -26 -56 11 -92 25 -26 30 -37 24 -59 -8 -33 -23 -52 -41
-52 -11 0 -14 -17 -14 -69 0 -60 3 -71 19 -76 46 -14 47 -110 1 -122 -17 -5
-20 -14 -20 -64 0 -46 4 -61 19 -71 11 -8 25 -26 32 -41 10 -22 9 -30 -5 -52
-10 -14 -24 -29 -32 -32 -9 -3 -14 -20 -14 -51 0 -38 5 -50 27 -68 38 -30 38
-88 0 -118 -35 -28 -37 -77 -5 -91 45 -20 43 -110 -2 -122 -18 -5 -20 -14 -20
-84 l0 -79 533 0 c593 0 577 -2 624 69 23 33 23 40 23 307 l0 272 139 4 c122
3 143 6 167 24 95 71 97 198 4 262 -30 20 -44 22 -171 22 l-139 0 0 334 c0
330 0 333 -23 367 -47 71 -30 69 -632 69 -505 0 -543 -2 -581 -19z m350 -621
l114 -61 -5 -63 c-5 -54 -2 -70 15 -98 25 -40 59 -58 110 -58 65 0 99 31 126
113 3 9 14 17 25 17 25 0 321 -286 321 -311 0 -24 -35 -43 -57 -30 -10 5 -43
35 -73 66 -69 71 -167 154 -130 110 14 -17 60 -67 102 -111 80 -83 91 -109 62
-138 -26 -26 -43 -19 -112 47 -68 63 -68 56 0 -20 39 -43 48 -79 26 -101 -22
-22 -48 -13 -98 34 -28 26 -50 45 -50 42 0 -3 16 -25 35 -49 40 -51 43 -72 14
-92 -29 -21 -50 -12 -105 44 l-48 49 31 32 c64 69 70 113 19 164 -22 22 -44
34 -60 34 -17 0 -36 10 -50 26 -16 19 -34 28 -60 29 -21 1 -47 11 -59 23 -45
42 -97 32 -163 -29 l-54 -52 0 222 c0 121 2 221 5 221 3 0 56 -27 119 -60z
m542 27 c28 -14 65 -38 82 -52 l31 -26 64 40 c35 21 78 46 95 55 l32 17 0
-200 0 -199 -47 -27 -47 -26 -95 94 c-211 205 -226 217 -268 217 -51 0 -80
-22 -93 -70 -14 -51 -47 -75 -84 -60 -37 14 -50 53 -36 110 33 136 220 201
366 127z m476 -293 c11 -23 10 -29 -11 -45 -21 -17 -26 -18 -45 -6 -27 18 -31
40 -11 61 24 24 54 20 67 -10z m-964 -86 c20 -20 14 -36 -29 -83 -45 -48 -72
-56 -89 -26 -14 27 -15 27 31 76 42 46 65 55 87 33z m120 -65 c2 -16 -11 -38
-44 -73 -47 -50 -70 -60 -92 -38 -20 20 -14 37 35 89 36 39 52 49 72 47 18 -2
27 -10 29 -25z m110 -61 c5 -34 -96 -137 -126 -128 -11 4 -24 16 -28 28 -9 30
91 130 126 126 17 -2 26 -10 28 -26z m514 -409 c24 -22 24 -77 -2 -103 -43
-43 -120 -11 -120 50 0 59 77 93 122 53z"/>
<path d="M2080 2354 c87 -49 85 -39 88 -381 l3 -303 39 0 c36 0 39 2 42 32 2
26 8 33 35 40 17 5 41 20 52 34 19 25 21 40 21 194 0 154 -2 169 -21 194 -11
14 -35 29 -52 34 -27 7 -33 14 -38 46 -3 20 -15 49 -26 64 -27 37 -99 72 -148
72 l-40 0 45 -26z m205 -384 c0 -106 -3 -144 -12 -147 -10 -4 -13 30 -13 147
0 117 3 151 13 148 9 -4 12 -42 12 -148z"/>
<path d="M2099 2287 c7 -18 11 -141 11 -323 0 -258 2 -294 15 -294 14 0 15 35
13 300 -3 298 -3 300 -26 322 l-23 23 10 -28z"/>
<path d="M662 2098 c-6 -6 -12 -20 -12 -29 0 -33 25 -40 130 -37 85 3 105 6
114 21 8 12 8 22 0 35 -9 14 -29 17 -115 20 -73 2 -108 -1 -117 -10z"/>
<path d="M740 1960 c0 -36 3 -40 25 -40 23 0 25 4 25 40 0 36 -2 40 -25 40
-22 0 -25 -4 -25 -40z"/>
<path d="M666 1887 c-11 -8 -17 -23 -14 -38 3 -23 6 -24 106 -29 57 -3 112 -2
123 2 25 10 25 54 0 68 -29 15 -193 13 -215 -3z"/>
<path d="M740 1710 l0 -70 -28 0 c-40 0 -65 -21 -60 -51 3 -24 4 -24 117 -24
98 0 115 3 125 18 19 29 -4 52 -58 55 l-46 3 0 70 c0 67 -1 69 -25 69 -24 0
-25 -2 -25 -70z"/>
<path d="M740 1450 l0 -70 -33 0 c-39 0 -57 -15 -57 -47 0 -30 22 -35 139 -31
76 2 96 6 105 21 19 29 -4 52 -58 55 l-46 3 0 70 c0 67 -1 69 -25 69 -24 0
-25 -2 -25 -70z"/>
<path d="M738 1203 l-3 -68 -40 -5 c-33 -4 -41 -9 -43 -29 -6 -40 21 -51 123
-51 102 0 129 11 123 51 -3 21 -8 24 -55 27 l-53 3 0 70 c0 67 -1 69 -25 69
-23 0 -24 -3 -27 -67z"/>
<path d="M2168 1001 c-3 -254 -4 -271 -24 -297 -11 -15 -33 -37 -48 -48 -27
-21 -39 -21 -619 -24 -566 -2 -593 -1 -623 17 -38 23 -64 76 -64 130 0 37 -2
41 -25 41 -24 0 -25 -3 -25 -61 0 -66 9 -89 49 -132 59 -65 27 -62 689 -65
394 -2 615 1 641 8 51 13 87 43 111 91 19 35 20 59 20 324 l0 285 -39 0 -40 0
-3 -269z"/>
<path d="M2110 1012 c0 -242 -1 -250 -24 -296 -23 -45 -23 -46 -3 -33 11 7 29
29 39 48 16 30 18 60 18 281 0 214 -2 248 -15 248 -13 0 -15 -34 -15 -248z"/>
<path d="M740 975 c0 -43 -1 -45 -28 -45 -40 0 -65 -21 -60 -51 3 -24 4 -24
120 -27 106 -2 118 -1 127 16 18 33 -12 62 -65 62 l-44 0 0 45 c0 41 -2 45
-25 45 -23 0 -25 -4 -25 -45z"/>
</g>
</svg>
